<?xml version="1.0" encoding="utf-8"?>
<!-- Generator: Adobe Illustrator 23.1.0, SVG Export Plug-In . SVG Version: 6.00 Build 0)  -->
<svg version="1.1" id="Vrstva_1" xmlns="http://www.w3.org/2000/svg" xmlns:xlink="http://www.w3.org/1999/xlink" x="0px" y="0px"
	 viewBox="0 0 1920 1080" style="enable-background:new 0 0 1920 1080;" xml:space="preserve">
<g>
	<path d="M1261.65,726.8c-8.84,24.4-17.4,48.02-25.96,71.64c-21.73,59.98-43.49,119.94-65.14,179.95
		c-2.88,7.98-7.8,13.45-15.66,16.95c-60.96,27.08-121.87,54.29-182.71,81.65c-9.04,4.07-17.47,3.97-26.44-0.06
		c-59.84-26.82-119.72-53.57-179.7-80.1c-9.93-4.39-15.94-10.98-19.67-21.42c-28.49-79.79-57.48-159.41-86.34-239.07
		c-1.14-3.14-2.55-6.19-3.98-9.64c-7.25,0-14.3-0.17-21.35,0.03c-22.74,0.65-45.57,0.45-68.19,2.47
		c-20.43,1.82-32.63-16.14-25.22-34.22c9.04-22.04,15.99-44.93,23.83-67.46c0.39-1.12,0.63-2.29,1.27-4.7
		c-10.26-2.34-20.19-4.74-30.17-6.87c-29.33-6.27-58.71-12.3-88.01-18.69c-14.91-3.26-21.27-16.72-16.06-33.1
		c12.88-40.5,25.8-80.98,38.7-121.47c4.27-13.4,8.71-26.75,12.71-40.23c2.73-9.2,8.24-15.11,17.12-18.97
		c26.66-11.58,53.1-23.68,79.6-35.61c2.49-1.12,4.84-2.54,7.17-3.78c0.81-11.94,1.78-23.55,2.35-35.19
		c1.45-30.08,2.63-60.16,4.1-90.24c1.8-36.81,3.67-73.61,5.71-110.41c1.56-28.2,3.57-56.37,5.07-84.57
		c1.06-20.02,19.34-29.85,36.49-18.96c17.06,10.83,33.74,22.25,50.62,33.35c88.83,58.44,177.67,116.87,267.17,175.73
		c16.89-11.08,34.02-22.29,51.11-33.54c88.5-58.29,176.97-116.64,265.51-174.86c18.65-12.26,36.82-2.79,38.01,19.57
		c2.43,45.75,4.8,91.49,7.23,137.24c3.14,59.24,6.31,118.48,9.5,178.5c2.68,1.41,5.57,3.03,8.54,4.48
		c26.49,12.91,52.92,25.95,79.54,38.59c8.41,3.99,13.37,10,16.14,18.83c16.93,53.84,34.16,107.58,51.23,161.37
		c5.85,18.43-0.64,29.84-19.38,33.93c-36.56,7.96-73.16,15.75-109.73,23.64c-1.42,0.31-2.77,0.92-5.07,1.7
		c5.55,16,10.93,31.55,16.35,47.09c3.13,8.98,6.52,17.88,9.44,26.93c5.93,18.38-5.1,32.71-24.47,32.09
		c-26.44-0.85-52.87-1.7-79.31-2.52C1269.93,726.7,1266.25,726.8,1261.65,726.8z M1392.51,422.95c-1.86-1.09-2.88-1.79-3.98-2.32
		c-77.26-37.56-154.37-75.44-231.92-112.4c-16.63-7.92-22.18-22.07-13.8-38.86c27.29-54.63,53.5-109.8,80.09-164.78
		c1.52-3.15,2.72-6.46,4.07-9.69c-3.82,0.7-6.4,2.2-8.89,3.84c-80.35,52.77-160.78,105.42-240.95,158.45
		c-12.65,8.37-23.56,8.43-36.26,0c-75.34-50-150.98-99.55-226.52-149.25c-10.29-6.77-20.59-13.54-30.89-20.3
		c-0.26,3.03,0.57,4.86,1.62,6.55c17.33,27.79,34.7,55.56,52.04,83.34c19.31,30.94,38.5,61.95,57.99,92.78
		c5.65,8.94,7.16,18.09,0.92,26.59c-3.39,4.62-9.09,8.16-14.47,10.6c-83.08,37.64-166.25,75.06-249.49,112.36
		c-4.92,2.21-7.52,5.1-9.08,10.3c-5.42,18.15-11.42,36.12-17.17,54.17c-7.68,24.09-15.34,48.19-23.12,72.63
		c1.99,0.84,3.3,1.64,4.71,1.94c37.35,8.04,74.72,16.04,112.08,24.03c16.82,3.6,23.78,15.7,18.34,32.16
		c-2.87,8.7-5.94,17.33-8.92,26c-4.64,13.48-9.28,26.95-14.25,41.39c7.35,0,13.45,0.14,19.55-0.03c18.43-0.49,36.86-1.25,55.3-1.62
		c14.69-0.29,20.42,3.85,25.37,17.5c24.83,68.39,49.64,136.79,74.48,205.17c6.37,17.55,12.83,35.07,19.25,52.63
		c48.85,21.87,97.32,43.56,147.29,65.94c0-17.08-0.32-32.09,0.13-47.07c0.23-7.72-1.66-14-6.14-20.43
		c-16.65-23.91-32.6-48.31-49.02-72.38c-4.71-6.91-6.62-13.88-2.44-21.49c4.12-7.5,10.87-10.01,19.26-9.97
		c40.61,0.16,81.21,0.17,121.82-0.01c8.68-0.04,15.78,2.24,20.13,10.14c4.48,8.13,1.59,15.17-3.22,22.21
		c-16.09,23.56-31.77,47.4-47.98,70.88c-4.72,6.84-7.38,13.59-6.94,22.11c0.64,12.58,0.08,25.21,0.16,37.82
		c0.01,2.23,0.67,4.46,1.22,7.82c49.65-22.2,98.16-43.89,146.38-65.45c1.38-3.56,2.54-6.36,3.58-9.22
		c30.08-82.98,60.13-165.97,90.22-248.95c4.82-13.29,11-17.82,24.69-17.58c18.45,0.32,36.89,1.06,55.33,1.52
		c6.31,0.16,12.62,0.03,19.71,0.03c-1.09-3.49-1.82-6.08-2.71-8.63c-6.74-19.41-13.66-38.75-20.21-58.23
		c-5.5-16.34,1.67-28.78,18.4-32.38c31.78-6.83,63.59-13.54,95.37-20.37c7.07-1.52,14.07-3.34,21.65-5.15
		C1420.75,511.6,1406.53,466.96,1392.51,422.95z M634.66,323.37c37-16.66,72.67-32.72,108.85-49.01
		c-32.74-51.75-63.77-102.94-96.1-153.3c-0.79,0.31-1.57,0.63-2.36,0.94C641.61,188.62,638.18,255.22,634.66,323.37z M1280.46,316.8
		c0.79-0.42,1.58-0.84,2.36-1.26c-3.49-67.18-6.98-134.36-10.47-201.55c-0.84-0.12-1.69-0.25-2.53-0.37
		c-25.74,53.13-51.48,106.25-77.64,160.25C1222.2,288.47,1251.33,302.63,1280.46,316.8z"/>
	<path d="M1064.79,601.9c-1.45-47.71,79.74-118.76,126.76-111.06c-0.66,2.31-1.07,4.61-1.95,6.72
		c-9.27,22.37-18.68,44.69-27.89,67.09c-2.4,5.83-6.38,9.67-12.29,11.52c-26.79,8.4-53.6,16.76-80.42,25.09
		C1067.9,601.61,1066.69,601.62,1064.79,601.9z"/>
	<path d="M723.55,490.01c66.2,1.79,120.64,64.51,127.85,111.84c-3.22-0.59-6.16-0.83-8.9-1.68c-24.74-7.66-49.43-15.49-74.18-23.12
		c-7.55-2.33-12.53-6.84-15.52-14.26c-8.66-21.52-17.7-42.88-26.53-64.32C725.28,496.06,724.66,493.5,723.55,490.01z"/>
</g>
</svg>
